<svg width="250" height="250" viewBox="0 0 250 250" fill="none" xmlns="http://www.w3.org/2000/svg">
<g filter="url(#filter0_d_20_54)">
<rect x="20" y="16" width="210" height="210" rx="37" fill="#161722"/>
<path d="M126.473 99.4561C127.684 98.2256 129.126 97.2472 130.717 96.5773C132.307 95.9074 134.015 95.5593 135.741 95.553C137.466 95.5467 139.176 95.8824 140.772 96.5407C142.367 97.199 143.816 98.1669 145.036 99.3884C146.256 100.61 147.221 102.061 147.878 103.658C148.534 105.255 148.868 106.966 148.859 108.693C148.851 110.42 148.502 112.128 147.83 113.718C147.159 115.309 146.18 116.751 144.949 117.961C142.496 120.413 139.17 121.79 135.703 121.789C132.236 121.788 128.911 120.408 126.46 117.955C124.009 115.501 122.633 112.173 122.634 108.704C122.636 105.235 124.021 101.908 126.473 99.4561ZM140.323 104.09C139.723 103.46 139.003 102.956 138.205 102.608C137.407 102.261 136.548 102.076 135.678 102.065C134.807 102.054 133.944 102.218 133.138 102.546C132.332 102.874 131.599 103.359 130.983 103.975C130.367 104.59 129.881 105.322 129.552 106.128C129.223 106.935 129.058 107.798 129.068 108.669C129.078 109.54 129.261 110.4 129.607 111.198C129.954 111.997 130.457 112.718 131.086 113.32C132.318 114.499 133.963 115.148 135.668 115.13C137.373 115.111 139.004 114.426 140.21 113.22C141.417 112.014 142.104 110.384 142.125 108.678C142.147 106.972 141.5 105.326 140.323 104.09ZM114.946 151.248C116.417 148.792 119.806 148.375 121.828 150.402C123.26 151.834 125.099 152.789 127.093 153.135C130.653 153.752 134.675 154.039 137.229 156.595L140.297 159.664C140.911 160.278 141.742 160.623 142.61 160.623C143.477 160.623 144.309 160.278 144.923 159.664L154.258 150.324C156.914 147.665 158.567 144.169 158.937 140.429C159.046 139.321 159.041 138.213 158.926 137.119C158.446 132.581 158.608 127.486 161.834 124.258C167.15 118.939 170.908 112.266 172.703 104.962C174.497 97.6578 174.259 90.0015 172.014 82.8231C171.248 80.3695 169.899 78.1381 168.083 76.3199C166.267 74.5016 164.037 73.1507 161.586 72.3826C154.411 70.1371 146.758 69.8998 139.458 71.6964C132.158 73.493 125.488 77.255 120.173 82.5744C116.937 85.8122 111.83 85.9837 107.276 85.5149C106.181 85.4021 105.07 85.3998 103.96 85.5121C100.213 85.8915 96.7122 87.5546 94.0499 90.2199L84.7926 99.4888C84.1794 100.103 83.8349 100.935 83.8349 101.803C83.8349 102.671 84.1794 103.503 84.7926 104.117L87.8585 107.184C90.4143 109.741 90.7022 113.765 91.3189 117.328C91.6645 119.324 92.6184 121.163 94.0499 122.596C96.0769 124.624 95.6581 128.017 93.1988 129.491L90.0591 131.373C89.6317 131.629 89.2682 131.978 88.9963 132.396C88.7244 132.813 88.5513 133.287 88.4901 133.781C88.4289 134.275 88.4812 134.777 88.6432 135.248C88.8051 135.719 89.0723 136.147 89.4245 136.499L107.939 155.023C108.29 155.376 108.718 155.644 109.188 155.806C109.659 155.969 110.16 156.022 110.654 155.961C111.148 155.901 111.622 155.728 112.039 155.457C112.456 155.185 112.806 154.822 113.062 154.395L114.946 151.248ZM165.773 84.7738C167.661 90.813 167.861 97.2542 166.35 103.399C164.839 109.543 161.675 115.157 157.202 119.63L131.079 145.774C130.466 146.388 129.634 146.732 128.766 146.732C127.899 146.732 127.067 146.388 126.454 145.774L119.527 138.844C119.522 138.838 119.517 138.832 119.512 138.826C119.508 138.819 119.503 138.813 119.498 138.808L105.623 124.926L105.604 124.906L98.6687 117.968C98.0555 117.354 97.711 116.522 97.711 115.654C97.711 114.786 98.0555 113.953 98.6687 113.34L124.799 87.2023C129.269 82.7268 134.88 79.5615 141.021 78.0499C147.162 76.5382 153.6 76.7379 159.636 78.6273C162.567 79.5437 164.857 81.8478 165.779 84.7803M94.0826 154.997C94.6785 154.38 95.0082 153.553 95.0007 152.695C94.9933 151.837 94.6493 151.016 94.0428 150.409C93.4363 149.802 92.6158 149.458 91.7582 149.451C90.9005 149.443 90.0742 149.773 89.4572 150.369L77.8905 161.936C77.5781 162.238 77.3289 162.599 77.1575 162.998C76.986 163.398 76.8958 163.827 76.892 164.262C76.8882 164.696 76.971 165.127 77.1355 165.529C77.2999 165.932 77.5428 166.297 77.85 166.604C78.1571 166.912 78.5223 167.155 78.9243 167.319C79.3264 167.484 79.7571 167.567 80.1914 167.563C80.6258 167.559 81.055 167.469 81.4541 167.297C81.8532 167.126 82.2141 166.876 82.5159 166.564L94.0826 154.997ZM84.8253 141.101C85.4386 141.714 85.7831 142.547 85.7831 143.414C85.7831 144.282 85.4386 145.115 84.8253 145.728L80.1803 150.369C79.8814 150.694 79.5201 150.954 79.118 151.136C78.7159 151.317 78.2814 151.415 77.8405 151.423C77.3996 151.432 76.9615 151.352 76.5524 151.187C76.1434 151.022 75.772 150.776 75.4604 150.464C75.1488 150.152 74.9035 149.78 74.7392 149.37C74.575 148.961 74.4952 148.522 74.5047 148.081C74.5141 147.64 74.6126 147.205 74.7942 146.803C74.9758 146.401 75.2368 146.04 75.5615 145.742L80.1934 141.094C80.4973 140.789 80.8582 140.547 81.2556 140.382C81.653 140.217 82.0791 140.132 82.5094 140.132C82.9396 140.132 83.3657 140.217 83.7631 140.382C84.1605 140.547 84.5215 140.796 84.8253 141.101ZM103.34 164.253C103.652 163.951 103.902 163.59 104.073 163.191C104.244 162.791 104.335 162.362 104.338 161.927C104.342 161.493 104.259 161.062 104.095 160.66C103.93 160.257 103.688 159.892 103.38 159.585C103.073 159.277 102.708 159.034 102.306 158.87C101.904 158.705 101.473 158.622 101.039 158.626C100.605 158.63 100.175 158.72 99.7763 158.892C99.3772 159.063 99.0163 159.313 98.7145 159.625L94.0761 164.266C93.7636 164.568 93.5144 164.929 93.343 165.329C93.1716 165.728 93.0813 166.157 93.0776 166.592C93.0738 167.026 93.1565 167.457 93.321 167.86C93.4855 168.262 93.7284 168.627 94.0355 168.935C94.3427 169.242 94.7079 169.485 95.1099 169.649C95.5119 169.814 95.9427 169.897 96.377 169.893C96.8113 169.889 97.2406 169.799 97.6397 169.627C98.0387 169.456 98.3997 169.207 98.7015 168.894L103.34 164.253Z" fill="#FDF656"/>
</g>
<defs>
<filter id="filter0_d_20_54" x="0" y="0" width="250" height="250" filterUnits="userSpaceOnUse" color-interpolation-filters="sRGB">
<feFlood flood-opacity="0" result="BackgroundImageFix"/>
<feColorMatrix in="SourceAlpha" type="matrix" values="0 0 0 0 0 0 0 0 0 0 0 0 0 0 0 0 0 0 127 0" result="hardAlpha"/>
<feOffset dy="4"/>
<feGaussianBlur stdDeviation="10"/>
<feComposite in2="hardAlpha" operator="out"/>
<feColorMatrix type="matrix" values="0 0 0 0 0 0 0 0 0 0 0 0 0 0 0 0 0 0 0.25 0"/>
<feBlend mode="normal" in2="BackgroundImageFix" result="effect1_dropShadow_20_54"/>
<feBlend mode="normal" in="SourceGraphic" in2="effect1_dropShadow_20_54" result="shape"/>
</filter>
</defs>
</svg>
